# xmcd CD database file
#
# Track frame offsets:
#	150
#	1414
#	17435
#	33639
#	46979
#	58217
#	69841
#	82313
#	92782
#	101793
#	119202
#	134941
#	146386
#	160551
#	175436
#	196392
#	217994
#	233547
#	256630
#	270293
#	283187
#	297435
#	315268
#
# Disc length: 4390 seconds
#
# Revision: 0
# Processed by: cddbd v1.5.2PL0 Copyright (c) Steve Scherf et al.
# Submitted via: CDex 1.51
#
DISCID=4f112417
DTITLE=Varias - Caciones de Cuna
DYEAR=2007
DGENRE=New Age
TTITLE0=Cuna
TTITLE1=M. granillo - Lucecita
TTITLE2=Pista - Lucecita
TTITLE3=a ramires - sol y luna
TTITLE4=Pista - duermase mi sol
TTITLE5=M Granillo - duermase mi sol
TTITLE6=Pista - duermase mi sol
TTITLE7=a ramirez - canta
TTITLE8=Pista - canta
TTITLE9=M granillo - cierra tus ojos
TTITLE10=Pista - cierra tus ojos
TTITLE11=a ramirez - una semilla
TTITLE12=Pista - una semilla
TTITLE13=a ramirez - sueño
TTITLE14=Pista - suenño
TTITLE15=M granillo - a mi niñita
TTITLE16=Pista - a mi niñita
TTITLE17=M granillo - ruedan las ola
TTITLE18=Pista - ruedan las olas
TTITLE19=M. granillo - via lactea
TTITLE20=Pista - Pista - via lactea
TTITLE21=V Rasgado - siempre
TTITLE22=Pista - Siempre
EXTD=YEAR: 2007
EXTT0=
EXTT1=
EXTT2=
EXTT3=
EXTT4=
EXTT5=
EXTT6=
EXTT7=
EXTT8=
EXTT9=
EXTT10=
EXTT11=
EXTT12=
EXTT13=
EXTT14=
EXTT15=
EXTT16=
EXTT17=
EXTT18=
EXTT19=
EXTT20=
EXTT21=
EXTT22=
PLAYORDER=
